<mxfile host="65bd71144e">
    <diagram id="8FSnG57rRJbLsfaXe02s" name="Page-1">
        <mxGraphModel dx="1953" dy="1273" grid="0" gridSize="10" guides="1" tooltips="1" connect="1" arrows="1" fold="1" page="0" pageScale="1" pageWidth="850" pageHeight="1100" background="#ffffff" math="0" shadow="0">
            <root>
                <mxCell id="0"/>
                <mxCell id="1" parent="0"/>
                <mxCell id="9" value="&lt;font&gt;Inner-loop&lt;/font&gt;" style="rounded=1;whiteSpace=wrap;html=1;verticalAlign=bottom;arcSize=6;fillColor=#E6E6E6;strokeColor=#003366;fontColor=#000000;fontStyle=1;labelBorderColor=none;strokeWidth=1;glass=1;shadow=1;" vertex="1" parent="1">
                    <mxGeometry x="-218" y="160" width="733" height="530" as="geometry"/>
                </mxCell>
                <mxCell id="31" value="&lt;font&gt;Components&lt;/font&gt;" style="rounded=1;whiteSpace=wrap;html=1;verticalAlign=bottom;arcSize=6;fillColor=#FFFFFF;strokeColor=#003366;fontColor=#000000;fontStyle=1;strokeWidth=1;dashed=1;" vertex="1" parent="1">
                    <mxGeometry x="-186" y="324" width="358" height="322" as="geometry"/>
                </mxCell>
                <mxCell id="20" value="&lt;font&gt;Outer-loop&lt;/font&gt;" style="rounded=1;whiteSpace=wrap;html=1;verticalAlign=bottom;arcSize=6;fillColor=#E6E6E6;strokeColor=#003366;fontColor=#000000;fontStyle=1;strokeWidth=1;shadow=1;glass=1;" vertex="1" parent="1">
                    <mxGeometry x="570" y="160" width="521" height="450" as="geometry"/>
                </mxCell>
                <mxCell id="5" value="Create resources" style="html=1;strokeColor=#003366;endArrow=blockThin;endFill=1;edgeStyle=elbowEdgeStyle;labelBackgroundColor=#FFFFFF;fontColor=#000000;fontStyle=1;elbow=vertical;" edge="1" parent="1" source="2" target="4">
                    <mxGeometry x="0.0247" relative="1" as="geometry">
                        <mxPoint as="offset"/>
                    </mxGeometry>
                </mxCell>
                <mxCell id="37" style="edgeStyle=orthogonalEdgeStyle;html=1;labelBackgroundColor=#FFFFFF;strokeColor=#003366;fontColor=#000000;endArrow=blockThin;endFill=1;" edge="1" parent="1" source="2" target="31">
                    <mxGeometry relative="1" as="geometry"/>
                </mxCell>
                <mxCell id="47" value="Debugging" style="edgeLabel;html=1;align=center;verticalAlign=middle;resizable=0;points=[];fontColor=#000000;labelBackgroundColor=#FFFFFF;fontStyle=1" vertex="1" connectable="0" parent="37">
                    <mxGeometry x="0.2625" y="-2" relative="1" as="geometry">
                        <mxPoint as="offset"/>
                    </mxGeometry>
                </mxCell>
                <mxCell id="2" value=".NET Aspire" style="rounded=1;whiteSpace=wrap;html=1;fontStyle=1;fillColor=#003366;shadow=0;glass=1;" vertex="1" parent="1">
                    <mxGeometry x="110" y="200" width="150" height="90" as="geometry"/>
                </mxCell>
                <mxCell id="8" style="edgeStyle=entityRelationEdgeStyle;html=1;labelBackgroundColor=#FFFFFF;strokeColor=#003366;fontColor=#000000;endArrow=blockThin;endFill=1;elbow=vertical;" edge="1" parent="1" source="3" target="4">
                    <mxGeometry relative="1" as="geometry"/>
                </mxCell>
                <mxCell id="12" value="Create resources &lt;br&gt;+ &lt;br&gt;deploy apps" style="edgeLabel;html=1;align=center;verticalAlign=middle;resizable=0;points=[];fontColor=#000000;labelBackgroundColor=#FFFFFF;fontStyle=1;labelBorderColor=default;spacingTop=1;" vertex="1" connectable="0" parent="8">
                    <mxGeometry x="-0.2161" y="-2" relative="1" as="geometry">
                        <mxPoint as="offset"/>
                    </mxGeometry>
                </mxCell>
                <mxCell id="3" value="AZD" style="rounded=1;whiteSpace=wrap;html=1;fontStyle=1;fillColor=#003366;glass=1;" vertex="1" parent="1">
                    <mxGeometry x="360" y="330" width="130" height="76" as="geometry"/>
                </mxCell>
                <mxCell id="50" style="edgeStyle=elbowEdgeStyle;elbow=vertical;html=1;entryX=0.25;entryY=0;entryDx=0;entryDy=0;labelBackgroundColor=#FFFFFF;strokeColor=#003366;fontColor=#000000;endArrow=blockThin;endFill=1;" edge="1" parent="1" source="4" target="31">
                    <mxGeometry relative="1" as="geometry">
                        <Array as="points">
                            <mxPoint x="401" y="27"/>
                            <mxPoint x="235" y="95"/>
                        </Array>
                    </mxGeometry>
                </mxCell>
                <mxCell id="51" value="Resources accessed &lt;br&gt;with Managed Identity" style="edgeLabel;html=1;align=center;verticalAlign=middle;resizable=0;points=[];fontColor=#000000;labelBackgroundColor=#FFFFFF;fontStyle=1" vertex="1" connectable="0" parent="50">
                    <mxGeometry x="-0.3899" y="4" relative="1" as="geometry">
                        <mxPoint as="offset"/>
                    </mxGeometry>
                </mxCell>
                <mxCell id="4" value="Azure" style="ellipse;shape=cloud;whiteSpace=wrap;html=1;fillColor=#003366;fontStyle=1;shadow=1;" vertex="1" parent="1">
                    <mxGeometry x="473" y="-18" width="120" height="80" as="geometry"/>
                </mxCell>
                <mxCell id="7" style="edgeStyle=orthogonalEdgeStyle;curved=1;html=1;labelBackgroundColor=#FFFFFF;strokeColor=#003366;fontColor=#000000;endArrow=blockThin;endFill=1;" edge="1" parent="1" source="6" target="3">
                    <mxGeometry relative="1" as="geometry"/>
                </mxCell>
                <mxCell id="6" value="" style="sketch=0;points=[[0,0,0],[0.25,0,0],[0.5,0,0],[0.75,0,0],[1,0,0],[0,1,0],[0.25,1,0],[0.5,1,0],[0.75,1,0],[1,1,0],[0,0.25,0],[0,0.5,0],[0,0.75,0],[1,0.25,0],[1,0.5,0],[1,0.75,0]];outlineConnect=0;fontColor=#232F3E;gradientColor=#4D72F3;gradientDirection=north;fillColor=#3334B9;strokeColor=#ffffff;dashed=0;verticalLabelPosition=bottom;verticalAlign=top;align=center;html=1;fontSize=12;fontStyle=0;aspect=fixed;shape=mxgraph.aws4.resourceIcon;resIcon=mxgraph.aws4.command_line_interface;" vertex="1" parent="1">
                    <mxGeometry x="230" y="330" width="78" height="78" as="geometry"/>
                </mxCell>
                <mxCell id="17" style="edgeStyle=entityRelationEdgeStyle;html=1;labelBackgroundColor=#FFFFFF;strokeColor=#003366;fontColor=#000000;endArrow=blockThin;endFill=1;elbow=vertical;" edge="1" parent="1" source="10" target="11">
                    <mxGeometry relative="1" as="geometry"/>
                </mxCell>
                <mxCell id="44" style="edgeStyle=elbowEdgeStyle;html=1;labelBackgroundColor=#FFFFFF;strokeColor=#003366;fontColor=#FFFFFF;endArrow=blockThin;endFill=1;" edge="1" parent="1" source="10" target="42">
                    <mxGeometry relative="1" as="geometry">
                        <Array as="points">
                            <mxPoint x="683" y="510"/>
                        </Array>
                    </mxGeometry>
                </mxCell>
                <mxCell id="10" value="" style="sketch=0;aspect=fixed;html=1;points=[];align=center;image;fontSize=12;image=img/lib/mscae/Azure_Repos.svg;fontColor=#FFFFFF;fillColor=#E6E6E6;" vertex="1" parent="1">
                    <mxGeometry x="660" y="443" width="45" height="50" as="geometry"/>
                </mxCell>
                <mxCell id="18" style="edgeStyle=elbowEdgeStyle;html=1;labelBackgroundColor=#FFFFFF;strokeColor=#003366;fontColor=#000000;endArrow=blockThin;endFill=1;elbow=vertical;" edge="1" parent="1" source="21">
                    <mxGeometry relative="1" as="geometry">
                        <mxPoint x="594" y="20" as="targetPoint"/>
                        <Array as="points">
                            <mxPoint x="685" y="20"/>
                        </Array>
                    </mxGeometry>
                </mxCell>
                <mxCell id="19" value="Create resources&lt;br&gt;+&lt;br&gt;deploy apps" style="edgeLabel;html=1;align=center;verticalAlign=middle;resizable=0;points=[];fontColor=#000000;labelBackgroundColor=#FFFFFF;fontStyle=1" vertex="1" connectable="0" parent="18">
                    <mxGeometry x="-0.5038" y="-3" relative="1" as="geometry">
                        <mxPoint x="-8" y="-5" as="offset"/>
                    </mxGeometry>
                </mxCell>
                <mxCell id="22" value="QA" style="edgeStyle=elbowEdgeStyle;elbow=vertical;html=1;labelBackgroundColor=#FFFFFF;strokeColor=#003366;fontColor=#000000;endArrow=blockThin;endFill=1;" edge="1" parent="1" source="11" target="21">
                    <mxGeometry relative="1" as="geometry"/>
                </mxCell>
                <mxCell id="11" value="" style="sketch=0;aspect=fixed;html=1;points=[];align=center;image;fontSize=12;image=img/lib/mscae/Azure_Pipelines.svg;fontColor=#FFFFFF;fillColor=#E6E6E6;" vertex="1" parent="1">
                    <mxGeometry x="760" y="443" width="50" height="50" as="geometry"/>
                </mxCell>
                <mxCell id="15" style="edgeStyle=entityRelationEdgeStyle;html=1;labelBackgroundColor=#FFFFFF;strokeColor=#003366;fontColor=#000000;endArrow=blockThin;endFill=1;elbow=vertical;" edge="1" parent="1" source="13" target="14">
                    <mxGeometry relative="1" as="geometry"/>
                </mxCell>
                <mxCell id="13" value="" style="sketch=0;points=[[0,0,0],[0.25,0,0],[0.5,0,0],[0.75,0,0],[1,0,0],[0,1,0],[0.25,1,0],[0.5,1,0],[0.75,1,0],[1,1,0],[0,0.25,0],[0,0.5,0],[0,0.75,0],[1,0.25,0],[1,0.5,0],[1,0.75,0]];outlineConnect=0;fontColor=#232F3E;gradientColor=#4D72F3;gradientDirection=north;fillColor=#3334B9;strokeColor=#ffffff;dashed=0;verticalLabelPosition=bottom;verticalAlign=top;align=center;html=1;fontSize=12;fontStyle=0;aspect=fixed;shape=mxgraph.aws4.resourceIcon;resIcon=mxgraph.aws4.command_line_interface;" vertex="1" parent="1">
                    <mxGeometry x="230" y="429" width="78" height="78" as="geometry"/>
                </mxCell>
                <mxCell id="16" style="edgeStyle=entityRelationEdgeStyle;html=1;labelBackgroundColor=#FFFFFF;strokeColor=#003366;fontColor=#000000;endArrow=blockThin;endFill=1;elbow=vertical;" edge="1" parent="1" source="14" target="10">
                    <mxGeometry relative="1" as="geometry"/>
                </mxCell>
                <mxCell id="14" value="git" style="rounded=1;whiteSpace=wrap;html=1;fontStyle=1;fillColor=#003366;glass=1;" vertex="1" parent="1">
                    <mxGeometry x="360" y="431" width="130" height="76" as="geometry"/>
                </mxCell>
                <mxCell id="21" value="AZD" style="rounded=1;whiteSpace=wrap;html=1;fontStyle=1;fillColor=#003366;glass=1;" vertex="1" parent="1">
                    <mxGeometry x="720" y="300" width="130" height="76" as="geometry"/>
                </mxCell>
                <mxCell id="24" value="IaC" style="verticalLabelPosition=bottom;html=1;verticalAlign=top;align=center;strokeColor=none;fillColor=#00BEF2;shape=mxgraph.azure.code_file;pointerEvents=1;labelBackgroundColor=none;fontColor=#000000;fontStyle=1" vertex="1" parent="1">
                    <mxGeometry x="-163" y="466" width="47.5" height="50" as="geometry"/>
                </mxCell>
                <mxCell id="25" value="Container" style="sketch=0;aspect=fixed;html=1;points=[];align=center;image;fontSize=12;image=img/lib/mscae/Docker.svg;labelBackgroundColor=none;fontColor=#000000;fillColor=#003366;fontStyle=1" vertex="1" parent="1">
                    <mxGeometry x="-43" y="556" width="50" height="41" as="geometry"/>
                </mxCell>
                <mxCell id="26" value="web/api" style="aspect=fixed;html=1;points=[];align=center;image;fontSize=12;image=img/lib/azure2/app_services/App_Service_Domains.svg;labelBackgroundColor=none;fontColor=#000000;fillColor=#003366;fontStyle=1" vertex="1" parent="1">
                    <mxGeometry x="-105" y="340.26" width="51" height="40.8" as="geometry"/>
                </mxCell>
                <mxCell id="27" value="NodeJS app" style="outlineConnect=0;dashed=0;verticalLabelPosition=bottom;verticalAlign=top;align=center;html=1;shape=mxgraph.aws3.android;fillColor=#8CC64F;gradientColor=none;labelBackgroundColor=none;fontColor=#000000;fontStyle=1" vertex="1" parent="1">
                    <mxGeometry x="60" y="330" width="51.5" height="61.33" as="geometry"/>
                </mxCell>
                <mxCell id="28" value="worker" style="verticalLabelPosition=bottom;html=1;verticalAlign=top;align=center;strokeColor=none;fillColor=#00BEF2;shape=mxgraph.azure.worker_role;labelBackgroundColor=none;fontColor=#000000;fontStyle=1" vertex="1" parent="1">
                    <mxGeometry x="99" y="471" width="50" height="40" as="geometry"/>
                </mxCell>
                <mxCell id="32" style="elbow=vertical;html=1;labelBackgroundColor=#FFFFFF;strokeColor=#003366;fontColor=#000000;endArrow=blockThin;endFill=1;" edge="1" parent="1" source="29">
                    <mxGeometry relative="1" as="geometry">
                        <mxPoint x="-56" y="387" as="targetPoint"/>
                    </mxGeometry>
                </mxCell>
                <mxCell id="33" style="edgeStyle=none;html=1;labelBackgroundColor=#FFFFFF;strokeColor=#003366;fontColor=#000000;endArrow=blockThin;endFill=1;elbow=vertical;" edge="1" parent="1" source="29" target="25">
                    <mxGeometry relative="1" as="geometry"/>
                </mxCell>
                <mxCell id="34" style="edgeStyle=none;html=1;labelBackgroundColor=#FFFFFF;strokeColor=#003366;fontColor=#000000;endArrow=blockThin;endFill=1;elbow=vertical;" edge="1" parent="1" source="29">
                    <mxGeometry relative="1" as="geometry">
                        <mxPoint x="-115" y="489" as="targetPoint"/>
                    </mxGeometry>
                </mxCell>
                <mxCell id="35" style="edgeStyle=none;html=1;labelBackgroundColor=#FFFFFF;strokeColor=#003366;fontColor=#000000;endArrow=blockThin;endFill=1;elbow=vertical;" edge="1" parent="1" source="29">
                    <mxGeometry relative="1" as="geometry">
                        <mxPoint x="102" y="486" as="targetPoint"/>
                    </mxGeometry>
                </mxCell>
                <mxCell id="36" style="edgeStyle=none;html=1;labelBackgroundColor=#FFFFFF;strokeColor=#003366;fontColor=#000000;endArrow=blockThin;endFill=1;elbow=vertical;" edge="1" parent="1" source="29" target="27">
                    <mxGeometry relative="1" as="geometry"/>
                </mxCell>
                <mxCell id="29" value="Dashboard" style="aspect=fixed;html=1;points=[];align=center;image;fontSize=12;image=img/lib/azure2/other/Dashboard_Hub.svg;labelBackgroundColor=none;fontColor=#000000;fillColor=#003366;fontStyle=1" vertex="1" parent="1">
                    <mxGeometry x="-31" y="446" width="58" height="44.35" as="geometry"/>
                </mxCell>
                <mxCell id="39" value="AZD" style="rounded=1;whiteSpace=wrap;html=1;fontStyle=1;fillColor=#003366;glass=1;" vertex="1" parent="1">
                    <mxGeometry x="897" y="300" width="130" height="76" as="geometry"/>
                </mxCell>
                <mxCell id="40" style="edgeStyle=elbowEdgeStyle;html=1;labelBackgroundColor=#FFFFFF;strokeColor=#003366;fontColor=#000000;endArrow=blockThin;endFill=1;elbow=vertical;" edge="1" parent="1" source="39">
                    <mxGeometry relative="1" as="geometry">
                        <mxPoint x="795" y="310" as="sourcePoint"/>
                        <mxPoint x="603" y="19" as="targetPoint"/>
                        <Array as="points">
                            <mxPoint x="781" y="19"/>
                        </Array>
                    </mxGeometry>
                </mxCell>
                <mxCell id="41" value="Create resources&lt;br&gt;+&lt;br&gt;deploy apps" style="edgeLabel;html=1;align=center;verticalAlign=middle;resizable=0;points=[];fontColor=#000000;labelBackgroundColor=#FFFFFF;fontStyle=1" vertex="1" connectable="0" parent="40">
                    <mxGeometry x="-0.5038" y="-3" relative="1" as="geometry">
                        <mxPoint x="-8" y="-5" as="offset"/>
                    </mxGeometry>
                </mxCell>
                <mxCell id="43" style="edgeStyle=orthogonalEdgeStyle;html=1;labelBackgroundColor=#FFFFFF;strokeColor=#003366;fontColor=#FFFFFF;endArrow=blockThin;endFill=1;" edge="1" parent="1" source="42" target="39">
                    <mxGeometry relative="1" as="geometry"/>
                </mxCell>
                <mxCell id="45" value="PROD" style="edgeLabel;html=1;align=center;verticalAlign=middle;resizable=0;points=[];fontColor=#000000;labelBackgroundColor=#FFFFFF;" vertex="1" connectable="0" parent="43">
                    <mxGeometry x="0.2963" y="1" relative="1" as="geometry">
                        <mxPoint as="offset"/>
                    </mxGeometry>
                </mxCell>
                <mxCell id="42" value="" style="sketch=0;aspect=fixed;html=1;points=[];align=center;image;fontSize=12;image=img/lib/mscae/Azure_Pipelines.svg;fontColor=#FFFFFF;fillColor=#E6E6E6;" vertex="1" parent="1">
                    <mxGeometry x="937" y="502" width="50" height="50" as="geometry"/>
                </mxCell>
                <mxCell id="57" style="edgeStyle=none;html=1;labelBackgroundColor=#FFFFFF;strokeColor=#003366;fontSize=16;fontColor=#000000;endArrow=blockThin;endFill=1;elbow=vertical;" edge="1" parent="1" source="48" target="20">
                    <mxGeometry relative="1" as="geometry"/>
                </mxCell>
                <mxCell id="58" style="edgeStyle=none;html=1;entryX=1.004;entryY=0.943;entryDx=0;entryDy=0;entryPerimeter=0;labelBackgroundColor=#FFFFFF;strokeColor=#003366;fontSize=16;fontColor=#000000;endArrow=blockThin;endFill=1;elbow=vertical;" edge="1" parent="1" source="48" target="9">
                    <mxGeometry relative="1" as="geometry"/>
                </mxCell>
                <mxCell id="48" value="AZD CLI commands used in your Inner-loop &lt;br style=&quot;font-size: 16px;&quot;&gt;are identical to those used in your &lt;br style=&quot;font-size: 16px;&quot;&gt;Outer-loop CD ('Continous Delivery') pipeline" style="text;html=1;align=center;verticalAlign=middle;resizable=0;points=[];autosize=1;strokeColor=none;fillColor=#E6E6E6;fontColor=#000000;fontStyle=3;fontSize=16;shadow=1;rounded=1;glass=0;" vertex="1" parent="1">
                    <mxGeometry x="569" y="646" width="361" height="70" as="geometry"/>
                </mxCell>
                <mxCell id="49" value="&amp;nbsp;Resources provisioned when AppHost project is run" style="shape=callout;whiteSpace=wrap;html=1;perimeter=calloutPerimeter;shadow=0;glass=1;labelBackgroundColor=#FFFFFF;labelBorderColor=none;sketch=0;strokeColor=#003366;strokeWidth=1;fontColor=#000000;fillColor=#FFFFFF;position2=1;fontStyle=1" vertex="1" parent="1">
                    <mxGeometry x="-283" y="371.74" width="120" height="94.26" as="geometry"/>
                </mxCell>
                <mxCell id="56" style="elbow=vertical;html=1;labelBackgroundColor=#FFFFFF;strokeColor=#003366;fontColor=#000000;endArrow=blockThin;endFill=1;" edge="1" parent="1" source="53" target="2">
                    <mxGeometry relative="1" as="geometry"/>
                </mxCell>
                <mxCell id="53" value="Visual Studio" style="shape=image;verticalLabelPosition=bottom;labelBackgroundColor=none;verticalAlign=top;aspect=fixed;imageAspect=0;image=data:image/jpeg,iVBORw0KGgoAAAANSUhEUgAABkAAAAZACAMAAAAW0n6VAAAAAXNSR0IArs4c6QAAAARnQU1BAACxjwv8YQUAAAMAUExURWsdmGkammkamWkamWkamWkZmWkammkamWkamWkbmGoZmGkamWkamWgamWkamWoammkamWoamWkamWkamWkamWkZmWkamWkbmmgamWkamQAAAAAAAAAAAAAAAAAAAAAAAAAAAAAAAAAAAAAAAAAAAAAAAAAAAAAAAAAAAAAAMwAAZgAAmQAAzAAA/wAzAAAzMwAzZgAzmQAzzAAz/wBmAABmMwBmZgBmmQBmzABm/wCZAACZMwCZZgCZmQCZzACZ/wDMAADMMwDMZgDMmQDMzADM/wD/AAD/MwD/ZgD/mQD/zAD//zMAADMAMzMAZjMAmTMAzDMA/zMzADMzMzMzZjMzmTMzzDMz/zNmADNmMzNmZjNmmTNmzDNm/zOZADOZMzOZZjOZmTOZzDOZ/zPMADPMMzPMZjPMmTPMzDPM/zP/ADP/MzP/ZjP/mTP/zDP//2YAAGYAM2YAZmYAmWYAzGYA/2YzAGYzM2YzZmYzmWYzzGYz/2ZmAGZmM2ZmZmZmmWZmzGZm/2aZAGaZM2aZZmaZmWaZzGaZ/2bMAGbMM2bMZmbMmWbMzGbM/2b/AGb/M2b/Zmb/mWb/zGb//5kAAJkAM5kAZpkAmZkAzJkA/5kzAJkzM5kzZpkzmZkzzJkz/5lmAJlmM5lmZplmmZlmzJlm/5mZAJmZM5mZZpmZmZmZzJmZ/5nMAJnMM5nMZpnMmZnMzJnM/5n/AJn/M5n/Zpn/mZn/zJn//8wAAMwAM8wAZswAmcwAzMwA/8wzAMwzM8wzZswzmcwzzMwz/8xmAMxmM8xmZsxmmcxmzMxm/8yZAMyZM8yZZsyZmcyZzMyZ/8zMAMzMM8zMZszMmczMzMzM/8z/AMz/M8z/Zsz/mcz/zMz///8AAP8AM/8AZv8Amf8AzP8A//8zAP8zM/8zZv8zmf8zzP8z//9mAP9mM/9mZv9mmf9mzP9m//+ZAP+ZM/+ZZv+Zmf+ZzP+Z///MAP/MM//MZv/Mmf/MzP/M////AP//M///Zv//mf//zP///14PtukAAAAodFJOUzbI9f6DXZuz20px67tEi2TTpOGUVXmoaDnBAAAAAAAAAAAAAAAAAADxo/C6AAAACXBIWXMAAA7DAAAOwwHHb6hkAABGOElEQVR4Xu3dbWMcx3GoUcKx6IuEIE0ygBX9/x96JaqXRRILYLe3pl/P+RQ7TiQBM/PINaWed38AQAUBAaCKgABQRUAAqCIgAFQREACqCAgAVQQEgCoCAkAVAQGgioAAUEVAAKgiIABUERAAqggIAFUEBIAqAgJAFQEBoIqAAFBFQACoIiAAVBEQAKoICABVBASAKgICQBUBAaCKgABQRUAAqCIgAFQREACqCAgAVQQEgCoCAkAVAQGgioAAUEVAAKgiIABUERAAqggIAFUEBIAqAgJAFQEBoIqAAFBFQACoIiAAVBEQAKoICABVBASAKgICQBUBAaCKgABQRUAAqCIgAFQREACqCAgAVQQEgCoCAkAVAQGgioAAUEVAAKgiIABUERAAqggIAFUEBIAqAgJAFQEBoIqAAFBFQACoIiAAVBEQAKoICABVBASAKgICQBUBAaCKgABQRUAAqCIgAFQREACqCAgAVQQEgCoCAkAVAQGgioAAUEVAAKgiIABUERAAqggIAFUEBIAqAgJAFQEBoIqAAFBFQACoIiAAVBEQAKoICABVBASAKgICQBUBAaCKgABQRUAAqCIgAFQREACqCAgAVQQEgCoCAkAVAQGgioAAUEVAAKgiIABUERAAqggIAFUEBIAqAgJAFQEBoIqAAFBFQACoIiAAVBEQAKoICABVBASAKgICQBUBAaCKgABQRUAAqCIgAFQREACqCAgAVQQEgCoCAkAVAQGgioAAUEVAAKgiIABUERAAqggIAFUEBIAqAgJAFQEBoIqAAFBFQACoIiAAVBEQAKoICABVBASAKgICQBUBAaCKgABQRUAAqCIgAFQREACqCAgAVQQEgCoCAkAVAQGgioAAUEVAAKgiIABUERAAqggIAFUEBIAqAgJAFQEBoIqAAFBFQACoIiAAVBEQAKoICABVBASYxb//6+4/5X9kBAICzOHd//zXn/7x9FD+Nd0JCDCF//3HX/34y5d/ln+LzgQEmMF/l3r8zShrCAICTOBrKcd3RlkDEBBgfP8q2fiJUVZvAgIM764k4xmjrK4EBBjd/yu5OMcoqyMBAcb28G199xVGWb0ICDC030omXmWU1YWAACN7LIl4i1FWBwICDOx96cMljLJaExBgXB9KGy5llNWUgADD+nfpwhWMshoSEGBUb61fvcAoqxUBAcZ0//30xOsZZTUhIMCQPpUWVDLKakBAgBH9s4TgBkZZRxMQYEBPJQI3Mso6lIAA4/m/EoDbGWUdSECA4bx2euL1jLKOIiDAYH6vXN99hVHWIQQEGEt8/DyTUdYBBAQYys8fP89klJVNQICRPPv4eSqjrFQCAgzk7MfPMxllJRIQYBwVpydezygri4AAw/hSHvGHM8pKISDAIB4OWb96gVFWAgEBxnDj6YnXM8q6lYAAQ0g4PfF6Rlk3ERBgBJ/LI701o6wbCAgwgLzTE69nlFVLQID+mqzvvsIoq4qAAL29yz898WpGWRUEBOjsmNMTr2eUdS0BAfo67vTE6xllXUVAgK6OPT3xakZZVxAQoKfDT0+8nlHWpQQE6OiuPLQHY5R1EQEB+sn9+Hkmo6wLCAjQy8MA67uvMMp6i4AAnfxWHtQDM8p6lYAAfTyWh/TYjLJeISBAF+/LE3p8RlkvERCghw/l6TwHo6yzBATooPfpiVczyjpDQID2xl6/eoFR1q8EBGjtfpDTE69nlPUTAQEaa/7x80xGWT8QEKCtLh8/z2SUdSIgQFNP5TE8NaOsbwQEaKnnx88zGWX9SUCAhsY9PfF6RlkCAjTz+5Tru6/YfJQlIEAro3z8PNPWoywBARoZ6ePnmfYdZQkI0MZgHz9PtekoS0CAJgb8+HmmLUdZAgK0MN3pidfbb5QlIEADX8pDdnGbjbIEBDjcw4LrVy/YapQlIMDRpj498Xr7jLIEBDjY9KcnXm+TUZaAAMf6XB6qe9lilCUgwKFWOT3xeuuPsgQEONIG67uvWHyUJSDAcd6tdnri1ZYeZQkIcJgVT0+83rqjLAEBjrLq6YnXW3SUJSDAQVY+PfFqS46yBAQ4xuKnJ15vvVGWgACHuCuPTX6w2ChLQIAjrPTx80xLjbIEBMj3sP367ivWGWUJCJDut/Ko5AWLjLIEBMj2WB6TvGyJUZaAAMnel2ckr5t/lCUgQK4P5fnI2yYfZQkIkGrv0xOvNvUoS0CATNavrjbvKEtAgDz3Tk+sMukoS0CANJt9/DzTlKMsAQGybPjx80zzjbIEBEjyVB6EVJtslCUgQI59P36eaapRloAAKZyemGWeUZaAAAl+t76baZJRloAAt/Px82xTjLIEBLiZj58fYfxRloAAt/Lx86MMPsoSEOBGPn5+oKFHWQIC3MbpiQcbd5QlIMBNvpTHHAcadJQlIMANHqxftTHkKEtAgHpOT2xovFGWgADVnJ7Y2GCjLAEBan0ujzXaGWqUJSBAJacn9jHOKEtAgDrWd/u5uy+/hL4EBKjxzumJPX0uv4a+BASo4PTEvgQEmJXTEzsTEGBSTk/sTUCAOTk9sTsBAaZ0Vx5i9CMgwIx8/HwAAgLMx8fPhyAgwHR+Kw8w+hIQYDaP5flFZwICTOZ9eXzRm4AAc/lQnl50JyDAVJyeOA4BAWZi/WogAgLM497piSMREGAaPn4+FgEBZuHj54MREGAST+WxxSgEBJiDj58PR0CAKTg9cTwCAkzA6YkjEhBgfD5+PiQBAYbn4+djEhBgdD5+PigBAQbn4+ejEhBgbE5PHJaAAEP7Uh5WjEdAgIE9WL8amIAA43J64tAEBBiW0xPHJiDAqD6X5xSDEhBgUE5PHJ2AAGOyvjs8AQFG9M7pieMTEGBATk+cgYAA43F64hQEBBiO0xPnICDAaJyeOAkBAQZzVx5PjE5AgLH4+Pk0BAQYiY+fT0RAgIH8Vh5NzEBAgHE8licTUxAQYBjvy4OJOQgIMIoP5bnEJAQEGITTE2cjIMAYrF9NR0CAEdw7PXE+AgIMwMfPZyQgQH8+fj4lAQG6eyoPJOYiIEBvPn4+KQEBOnN64qwEBOjK6YnzEhCgJx8/n5iAAB35+PnMBATox8fPpyYgQDc+fj43AQF6cXri5AQE6ORLeQwxKwEBuniwfjU9AQF6cHriAgQE6MDpiSsQEKC9z+UJxNQEBGjO6YlrEBCgNeu7ixAQoK13Tk9chYAATTk9cR0CArTk9MSFCAjQ0Mfy6GEFAgK04/TEpQgI0MxdefCwBgEBWvHx88UICNCGj58vR0CAJn4rDx3WISBAC4/lmcNCBARo4H155LASAQGO96E8cViKgACHc3rimgQEOJr1q0UJCHCse6cnrkpAgEP5+Pm6BAQ4ko+fL0xAgAM9lUcNKxIQ4Dg+fr40AQEO4/TEtQkIcBCnJ65OQIBj+Pj58gQEOISPn69PQIAjfC3PGBYmIMABfPx8BwIC5HN64hYEBEj3pTxgWJuAAMkerF9tQkCAXE5P3IaAAKmcnrgPAQEyfS7PFjYgIEAipyfuRECAPNZ3tyIgQJZ3Tk/ci4AASZyeuBsBAXI4PXE7AgKk+FgeKuxDQIAMTk/ckIAACe7KI4WdCAhwOx8/35KAALfy8fNNCQhwo9/K44TdCAhwm8fyNGE7AgLc5H15mLAfAQFu8aE8S9iQgAA3cHrizgQEqGf9amsCAtS6d3ri3gQEqOTj57sTEKCOj59vT0CAKk/lIcK+BASo4ePnCAhQw+mJCAhQwemJ/EVAgGv5+DnfCAhwJR8/528CAlzna3l6sD0BAa7i4+ecCAhwDacn8p2AAFf4Uh4dICDAFR6sX/EDAQEu5fREfiIgwIWcnsjPBAS4zOfy1IBCQICLOD2RXwkIcAnruzwjIMDb3jk9kecEBHiT0xM5R0CAtzg9kbMEBHjDx/K4gJ8JCPA6pyfyAgEBXnVXHhbwKwEBXuPj57xIQICX+fg5rxAQ4EW/lQcFnCMgwEsey3MCzhIQ4AXvy2MCzhMQ4LwP5SkBLxAQ4CynJ/IWAQHOsX7FmwQEeO7e6Ym8TUCAZ3z8nEsICPArHz/nIgIC/OKpPB7gdQIC/MzHz7mQgAA/cXoilxIQ4AdOT+RyAgIEHz/nCgICfOfj51xDQICTr+W5ABcREKDw8XOuIyDA35yeyJUEBPjmS3kowKUEBPjTg/UrriYggI+fU0VAAKcnUkVAgM/leQBXERDYntMTqSMgsDvru1QSENjbO6cnUktAYGtOT6SegMDOnJ7IDQQENvaxPAighoDAvpyeyE0EBLZ1Vx4DUEdAYFc+fs6NBAT25OPn3ExAYEtOT+R2AgI7eixPALiBgMCG3pcHANxCQGA/H8r9DzcRENiO0xPJISCwG+tXJBEQ2Mu90xPJIiCwlU/l1ofbCQjsxMfPSSQgsJGncuNDBgGBffj4OakEBLbh9ERyCQhswumJZBMQ2IOPn5NOQGALPn5OPgGBHXwtdzwkEhDYgI+fcwQBgfU5PZFDCAgs70u53SGXgMDiHqxfcRABgbX5+DmHERBYmtMTOY6AwMo+lzsdDiAgsDCnJ3IkAYF1Wd/lUAICq3rn9ESOJSCwKKcncjQBaenrP/7rsfyPcDCnJ3I4AWnmf/9+n/mv8i/hUB+/XW5wJAFp5PH7aRJffi//FhzH6Yk0ICAt/P5Uftx/M8biaHflWoMjCcjx/vNsl9IYi2P5+DlNCMjRvp5bhTHG4kA+fk4jAnKo8uL8DGMsjuL0RFoRkAPFi/MzjLE4xmO5wuBwAnKUX16cP2eMxRHel+sLjicgx3j+4vwMYyzSfSgXFzQgIEc4++L8DGMskjk9kZYEJN3LL86fM8YilfUrmhKQZK++OD/DGIs0905PpC0ByfTmi/MzjLFI8qlcUtCKgOS56MX5c8ZYpPDxc5oTkCyXvjg/wxiL21X8t1+4kYCkuObF+RnGWNzKx8/pQEAS/PPKF+fPGWNxG6cn0oOA3KrmxfkZxljUc3oifQjIbSpfnJ9hjEUtHz+nEwG5xQ0vzp8zxqKOj5/Ti4BUu/HF+RnGWFT4Wi4faE5AKt3+4vwMYyyu5uPn9CMgNZJenD9njMWVnJ5IRwJyvbwX52cYY3GNI/6LMFxKQK6V+uL8DGMsLvZg/YquBOQq+S/OnzPG4kI+fk5nAnKFQ16cn2GMxSWcnkhvAnKpw16cn2GMxds+l6sFuhGQyxz64vw5Yyze4vRE+hOQSxz94vwMYyxeZX2XAQjIm1q8OD/DGIuXvXN6IiMQkDe0enH+nDEWL3F6ImMQkNe0fHF+hjEWZzk9kUEIyMsavzg/wxiLMz6WywN6E5CXdHhx/pwxFs84PZFhCMhZnV6cn2GMxc/uypUB/QnIGf1enJ9hjMWPfPycgQjIrzq/OH/OGIvvfPycoQjIz/q/OD/DGIu/OT2RsQjIj4Z4cX6GMRZ/eSzXAwxCQMLA25HGWPzxx/tyNcAoBCQMfbqpMdb2PpRLAYYhIGHs47GNsTbn9ETGIyBh8O8rGGNtzfoVAxKQMPwHeoyxtnXv9ERGJCBh/C+8GWNt6lO5AGAsAhLGD4gx1p58/JxBCUiYICDGWDsa7WwEOBGQMEVAjLG24+PnDEtAwhwBMcbajNMTGZeAhEkCYoy1E6cnMjIBCdMExBhrGz5+ztAEJMwTEGOsTfj4OWMTkDBRQIyxtvC1/LJhUAISpgqIMdb6fPyc0QlImCsgxlirc3oiwxOQMFlAjLHWNtKH+eE8AQnTBcQYa10P1q+YgICE+QJijLUqHz9nCgISJgyIMdaanJ7IHAQkTBkQY6wFzXklsiEBCZPetsZYq3F6IrMQkDDt3/cZYy3F+i7TEJAw7+DAGGsd75yeyDwEJEw8eTbGWoXTE5mJgISpX10aYy3B6YlMRUDC1AExxlrBx/LLhDkISJg7IMZY83N6IpMRkDB5QIyxZndXfo8wCwEJ0wfEGGtqPn7OdAQkzB8QY6x5+fg5ExKQsEBAjLFm5fREZiQgYYmAGGNN6bH89mAqAhLWCIgx1oTel98dzEVAwiIBMcaazofyi4PJCEhYJiDGWHNxeiKzEpCwTkCMsWZi/YppCUhYKCDGWNO4d3oi8xKQsFRAjLHm8Kn8umBGAhLWCogx1gx8/JypCUhYLCDGWON7Kr8pmJOAhOUCYow1OB8/Z3ICEtYLiDHW0JyeyOwEJCwYEGOscTk9kfkJSFgyIMZYg/LxcxYgIGHNgBhjDcnHz1mBgIRFA2KMNaCv5VcDUxOQsGxAjLFG4+PnrEFAwroBMcYai9MTWYSAhIUDYow1ki/ldwKzE5CwdECMsUbxYP2KZQhIWDsgxlhj8PFzFiIgYfGAGGONwOmJrERAwvIBMcbqbv1rjK0ISNjg5jbG6svpiaxFQMIWf3dojNWR9V0WIyBhj/GCMVYv75yeyGoEJGwynzbG6sPpiaxHQMI2LziNsTpweuIo/BfBRAIStgmIMVZ7H8uPns6+POxznzcgIGGjC8sYqzGnJw7iaav7/HgCEra6sIyxWrorP3X6+sdvf/4yBCSRgIS9LixjrHZ8/HwM//fttyEgiQQkbHZhGWM14uPng/jvv38fApJIQMJ2F5YxVgtOTxzDv8vvQ0AyCUjY78IyxjreY/lZ09fH8vsQkFQCEja8sIyxjva+/KTp6stD+X38SUASCUjY8sIyxjrUh/Jjpqun8uv4RkASCUjY88IyxjqQ0xNH8G15NwhIIgEJm15YxliHsX41gr+Xd4OAJBKQsO2FZYx1iHunJ46gLO8GAUkkIGHfC8sY6wCfyg+Xnr4v7wYBSSQgYeMLyxgrnY+fjyCWd4OAJBKQsPWFZYyV66n8XOnox+XdICCJBCTsfWEZY2Xy8fMB/LS8GwQkkYCEzS8sY6w8Tk/s75fl3SAgiQQkbH9hGWPlcHriAH5d3g0CkkhAggvLGCuDj58P4NnybnCfJxKQ4MIyxkrg4+f9nVneDe7zRAISXFh/Msa60dfyg6Sfc8u7wX2eSECCC+svxlg38fHz7s4v7wb3eSIBCS6sb4yxbuD0xO5eWN4N7vNEAhJcWIUxVq0v5SdILy8u7wb3eSIBCS6sE2OsKg/Wr3p7eXk3uM8TCUhwYX1njFXBx8+7e2V5N7jPEwlIcGH9wBjrWk5P7O3V5d3gPk8kIMGF9SNjrOu4enp7fXk3+E0lEpDgwvqJMdY1nJ7Y2VvLu8F9nkhAggvrF8ZYF7O+29mby7vBfZ5IQIIL61fGWJd55/TEvi5Y3g3u80QCElxYzxhjXcLpiZ1dsrwb3OeJBCS4sM4wxnqT0xM7u2h5N7jPEwlIcGGdY4z1ho/lB0UfFy7vBvd5IgEJLqyzjLFe5fTEvi5d3g3u80QCElxYLzDGetld+RnRxeXLu8F9nkhAggvrJcZYL/Hx866uWN4N7vNEAhJcWC8yxjrLx8+7ump5N7jPEwlIcGG9whjrOacndnXd8m5wnycSkODCeo0x1q8ey0+GLq5c3g3u80QCElxYrzLG+tn78nOhh6uXd4P7PJGABBfWG4yxfvCh/FDo4frl3eA+TyQgwYX1FmOs75ye2FHN8m5wnycSkODCepMxVuHj5x1VLe8G93kiAQkurAsYY/3p3umJ/VQu7wb3eSIBCS6sSxhj/fGp/CjooHZ5N7jPEwlIcGFdZPsxlo+fd1S9vBvc54kEJLiwLrT3GOup/BRo74bl3eA+TyQgwYV1qZ3HWD5+3s8ty7vBfZ5IQIIL62L7jrGcntjNbcu7wX2eSECCC+sKe46xnJ7Yz43Lu8F9nkhAggvrGjuOsXz8vJubl3eD+zyRgAQX1lX2G2P5+Hk3ty/vBvd5IgEJLqwrbTbG+lr+smkuYXk3uM8TCUhwYV1rqzGWj5/3krK8G9zniQQkuLCuttEYy+mJveQs7wb3eSIBCS6sCruMsZye2EnW8m5wnycSkODCqrHFGOvB+lUnacu7wX2eSECCC6vKBmMsHz/vJHF5N7jPEwlIcGFVWn2M5fTETjKXd4P7PJGABBdWrbXHWK6LTlKXd4PfZyIBCS6saiuPsZye2Efy8m5wnycSkODCusGyYyzru31kL+8G93kiAQkurFusOcZ65/TELvKXd4P7PJGABBfWTVYcYzk9sY8DlneD+zyRgAQX1o2WG2M5PbGLQ5Z3g/s8kYAEF9atFhtjfSx/WTR1zPJucJ8nEpDgwrrZUmMspyd2cdDybnCfJxKQ4MJKsM4Y6678FdHSYcu7wX2eSECCCyvDKmMsHz/v4bjl3eA+TyQgwYWVYokxlo+f93Dk8m5wnycSkODCSjL/GMvpiT0curwb3OeJBCS4sLLMPsZ6LH8dNHTw8m5wnycSkODCSjP3GOt9+augoaOXd4P7PJGABBdWoonHWB/KXwINHb68G9zniQQkuLAyTTvGcnpiew2Wd4P7PJGABBdWqknHWD5+3l6L5d3gPk8kIMGFlWzCMda90xOba7O8G9zniQQkuLCyTTfG+lT+xGmn0fJucJ8nEpDgwko32RjLx8+ba7a8G9zniQQkuLAOMNMY66n8OdNMu+Xd4D5PJCDBhXWEecZYPn7eXMPl3eA+TyQgwYV1iFnGWE5PbK3p8m5wnycSkODCOsgMYyynJzbXdnk3uM8TCUhwYR1l/DGWj5+31np5N7jPEwlIcGEdZvQxlo+ft9Z8eTe4zxMJSHBhHWjoMdbX8idJIx2Wd4P7PJGABBfWkQYeY/n4eWM9lneD+zyRgAQX1qGGHWM5PbGxLsu7wX2eSECCC+tgY46xnJ7YVqfl3eA+TyQgwYV1tAHHWA/Wr9rqtbwb3OeJBCS4sA433BjLx8/b6re8G9zniQQkuLAaGGuM5fTEtjou7wb3eSIBCS6sFkYaY/mNN9V1eTf4rScSkODCamKcMZbTE5vqu7wb3OeJBCS4sBoZZIxlfbepzsu7wX2eSECCC6uVEcZY75ye2FL35d3gPk8kIMGF1Uz/MZbTE5vqv7wb3OeJBCS4sBrqPMZyemJLIyzvBvd5IgEJQ1xY2wxWuo6xPpY/CVoYYnk3CEgiAQlDXFift5mtdBxjOT2xoUGWd4OAJBKQMEZANvq2aq8x1l3549PAKMu7QUASCUgYJSB/fCj/8/L6jLF8/LyhYZZ3g4AkEpAwTED2GdF3GGP5+HlDAy3vBgFJJCBhnIBstGTaeozl9MSGRlreDQKSSEDCQAHZaM7Sdoz1WP6oHG+s5d0gIIkEJAwVkH1ehLQcY70vf0yON9jybhCQRAISxgrIRv+sQrMx1jZR7m+45d0gIIkEJAwWkI1ehDQaYzk9sZnxlneDgCQSkDBaQDZ6EdJkjOXj580MuLwbBCSRgITxArLRzOXwMda90xNbGXJ5NwhIIgEJAwZkoxchB4+xPpU/DIcbc3k3CEgiAQkjBmSjFyGHjrF8/LyVUZd3g4AkEpAwZEB2OnnjuDHWU/kjcLRhl3eDgCQSkDBoQDZ6EXLUGMvHzxsZeHk3CEgiAQmjBmSjFyHHjLGcntjIyMu7QUASCUgYNiA7fX81f4zl9MRWhl7eDQKSSEDCuAHZ6W+is8dYG8W3r8GXd4OAJBKQMHJANnoRkjvG8vHzRkZf3g0CkkhAwtAB2ekz3oljrK/l/yXHGn95NwhIIgEJYwdkp1lM2hjLx8/bmGB5NwhIIgEJgwdkpxchSWMspyc2McXybhCQRAIShg/ITseRZ4yxnJ7YxBzLu0FAEglIGD8gO70IuXmM9WD9qolJlneDgCQSkDBBQHZ6EXLjGMvHz5uYZnk3CEgiAQkzBGSrf6z6ljGW0xObmGd5NwhIIgEJcwRkpxch9WMsD4kWZlreDa6NRAISJgnITi9CasdYTk9sYarl3SAgiQQkzBKQrU7nqBpjWd9tYLLl3SAgiQQkTBOQrV6EXD/Geuf0xAZmW94NApJIQMJEAdnpRci1YyynJ7Yw3fJuEJBEAhJmCshOL0KuG2M5PbGBCZd3g4AkEpAwVUC2+hvtK8ZYO4W1mxmXd4OAJBKQMFdAtnoRcvEYy+mJx5tzeTcISCIBCbMFZKcXIReOse7Kf5rjTLq8GwQkkYCE6QKy1bzmkjHWRv+drJdpl3eDgCQSkDBfQLZ6EfLmGMvHz4837/JuEJBEAhImDMhef9P9+hjL6YnHm3h5NwhIIgEJUwZkqxchr42xHst/hsNMvbwbBCSRgIQ5A7LVi5CXx1jvy3+Cw8y9vBsEJJGAhEkDstc/ev3CGGun/x7Wx+zLu0FAEglImDUge70IOTvGcnri0aZf3g0CkkhAwrwB2epvwM+MsXz8/GALLO8GAUkkIGHigOx1gscvY6x7pycebIXl3SAgiQQkzByQvV6E/DTG+lT+TY6yxPJuEJBEAhKmDsheL0J+GGP5+PnBFlneDQKSSEDC5AHZaxPpNMZ6Kv+ag6yyvBsEJJGAhNkDsteLkL/HWD5+fqx1lneDgCQSkDB9QPZ6EfLXGMvpicdaaHk3CEgiAQnzB2SzJ+pHpyceaqnl3SAgiQQkrBAQ/0g2WdZa3g0CkkhAwhIB8U1Xciy2vBsEJJGAhDUCsteLEA6y3PJuEJBEAhIWCYhXy9xsveXdICCJBCQsExAvQrjJisu7QUASCUhYJyBehHCDJZd3g4AkEpCwUEC8CKHWosu7QUASCUhYKSBehFBn1eXdICCJBCSsFRAvQqiw7PJuEJBEAhIWC4gXIVxr4eXdICCJBCSsFhAvQrjOysu7QUASCUhYLiBehHCFtZd3g4AkEpCwYEC8COFSiy/vBgFJJCBhxYB4EcJFll/eDQKSSEDCkgHxIoQLrL+8GwQkkYCENQPiRQhv2mB5NwhIIgEJqwbEixBetcXybhCQRAISlg2IFyG8Yo/l3SAgiQQkrBsQL0J4yS7Lu0FAEglIWDggXoRw3jbLu0FAEglIWDogXoTw3EbLu0FAEglIWDsgXoTwq52Wd4OAJBKQsHhAvAjhZ1st7wYBSSQgYfWAeBHCDzZb3g0CkkhAwvoB8SKEk92Wd4OAJBKQsEFAvAjhm/2Wd4OAJBKQsENAvAjhTxsu7wYBSSQgYYuAeBHClsu7QUASCUjYJCBehGxuz+XdICCJBCTsEhAvQra26fJuEJBEAhK2CYgXIfvadnk3CEgiAQn7BMSLkF3tu7wbBCSRgISdAuJFyI52Xt4NApJIQMJWAfEiZD9bL+8GAUkkIGGvgHgRspnNl3eDgCQSkLBZQLwI2cruy7tBQBIJSNguIF6E7GP75d0gIIkEJOwXEC9CNmF59wcCkkhAwoYB8SJkC5Z3fyQgiQQk7BgQL0LWZ3n3ZwKSSEDCngHxImRxlnd/ISCJBCRsGhAvQlZmefcZAUkkIGHXgHgRsi7Lu88JSCIBCdsGxIuQVVnePUNAEglI2DggXoSsyPLuWQKSSEDCzgHxImQ9lnfPE5BEAhK2DogXIYuxvPsSAUkkIGHvgHgRshTLuy8SkEQCEnYPiBchy7C8+woBSSQgYfuAeBGyCMu7rxGQRAISBMSLkCVY3n2VgCQSkCAgf/IiZHaWd98gIIkEJAjIX7wImZvl3bcISCIBCQLyjRchE7O8+zYBSSQgQUD+5kXItCzvXkBAEglIEJATL0KmZHn3IgKSSECCgHznRciELO9eRkASCUgQkOBFyHQs715IQBIJSBCQH3gRMhfLuxcTkEQCEgTkJ16ETMTy7uUEJJGABAH5mRchs7C8ew0BSSQgQUB+4UXIHCzvXkVAEglIEJBfeREyAcu7VxKQRAISBOQ5L0JGZ3n3WgKSSECCgJzhRcjYLO9eTUASCUgQkHO8CBmY5d0KApJIQIKAnOVFyLAs79YQkEQCEgTkBV6EDMnybh0BSSQgQUBe4kXIgCzvVhKQRAISBORFXoSMxvJuNQFJJCBBQF7mRchYLO/WE5BEAhIE5DVehAzE8u4NBCSRgAQBeZUXIaOwvHsTAUkkIEFAXudFyBgs795GQBIJSBCQN3gRMgDLu7cSkEQCEgTkTV6E9GZ592YCkkhAgoC8zYuQrizvJhCQRAISBOQCXoR0ZHk3g4AkEpAgIJfwIqQby7spBCSRgAQBuYwXIV1Y3k0iIIkEJAjIhbwI6cDybhYBSSQgQUAu5UVIa5Z38whIIgEJAnIxL0LasrybSEASCUgQkIsJSFsCkkhAEglIEJBLGWG1ZoSVR0ASCUgQkAt5id6Bl+hZBCSRgAQBuYw13i6s8SYRkEQCEgTkEl5/dOMfJEwhIIkEJAjIBbz+6MhRJhkEJJGABAF5m9cfXTlMMYGAJBKQICBv8vqjNwu9NxOQRAISBOQNXn8MwELvrQQkkYAEAXmd1x9jsNB7GwFJJCBBQF7l9ccoLPTeREASCUgQkNd4/TEQC703EJBEAhIE5GVef4zFQm89AUkkIEFAXuT1x2gs9FYTkEQCEgTkJV5/DMhCbyUBSSQgQUBe4PXHkCz01hGQRAISBOQsrz+GZaG3hoAkEpAgIOd4/TEwC70VBCSRgAQBOcPrj7FZ6L2agCQSkCAgz3n9MToLvdcSkEQCEgTkV15/TMBC75UEJJGABAH5hdcfc7DQexUBSSQgQUB+5vXHLCz0XkNAEglIEJCfeP0xEQu9lxOQRAISBOQHXn/MxULvxQQkkYAEAQlef0zHQu+FBCSRgAQB+c7rjwlZ6L2MgCQSkCAgJ15/TMlC70UEJJGABAH5m9cf07LQewEBSSQgQUC+8fpjYhZ63yYgiQQkCMhfvP6Ym4XetwhIIgEJAvInrz9mZ6H3DQKSSECCgHj9sQQLva8SkEQCEgTE6481WOh9jYAkEpCwfUC8/liFhd5XCEgiAQm7B8Trj4VY6H2RgCQSkLB3QLz+WIuF3pcISCIBCVsHxOuP5VjoPU9AEglI2DkgXn8syELvWQKSSEDCxgHx+mNNFnrPEJBEAhK2DYjXH8uy0PucgCQSkLBrQLz+WJiF3mcEJJGAhE0D4vXH2iz0/kJAEglI2DMgXn+szkLvzwQkkYCEHQPi9ccOLPT+SEASCUjYMCBef+zBQu8PBCSRgIT9AuL1xzYs9H4nIIkEJGwXEK8/NmKh90RAEglI2CwgXn/sxUJvISCJBCTsFRCvP7ZjofcbAUkkIGGrgHj9sSELvX8RkEQCEnYKiNcfe7LQKyCpBCTsExCvP7ZloVdAMglI2CYgXn/sbPuFXgFJJCBhl4B4/bG33Rd6BSSRgIRNAuL1x+42X+gVkEQCErYIiNcfbL7QKyCJBCTsEBCvP/jLzgu9ApJIQMIGAfH6g2LfhV4BSSQgYf2AeP3Bd9su9ApIIgEJqwfE6w9+sulCr4AkEpCweEC8/uAXey70CkgiAQlrB8TrD57ZcqFXQBIJSFg6IF5/cM6GC70CkkhAwsIB8fqDF+y30CsgiQQkrBsQrz942W4LvQKSSEDCsgHx+oPXbLbQKyCJBCSsGhCvP3jDVgu9ApJIQMKaAfH6g7fttNArIIkEJCwZEK8/uMRGC70CkkhAwooB8fqDC22z0CsgiQQkLBgQrz+42C4LvQKSSEDCcgHx+oOr7LHQKyCJBCSsFhCvP7jSFgu9ApJIQMJiAfH6g+ttsNArIIkEJKwVEK8/qLH+Qq+AJBKQsFJAvP6g0vILvQKSSEDCQgHx+oN6iy/0CkgiAQnrBMTrD26x9kKvgCQSkLBMQLz+4EYrL/QKSCIBCYsExOsPbrfwQq+AJBKQsEZAvP4gxbILvQKSSEDCEgHx+oMkqy70CkgiAQkrBGSr1x8f/6f8Dxxi0YVeAUkkIGH+gGz1+uPL79YFjrbkQq+AJBKQMH1Atnr98a9vf8n/V/4Vx1hxoVdAEglImD0gW73+eCx/0U/lX3OQ9RZ6BSSRgITJA7LTOOev8VXxz/JvcZDlFnoFJJGAhKkDstXrj7/HV8Wn8m9ylMUWegUkkYCEmQOy1euP0/iquPdPTh5srYVeAUkkIGHigOz0+uOH8dXJl/K/4iBLLfQKSCIBCfMGZKfXHz+Nr07+Xf6XHGWhhV4BSSQgYdaAbPX645fx1Yl/AP9o6yz0CkgiAQmTBmSn1x9nxlfF+/Kf4DCrLPQKSCIBCXMGZKe/9z47vioey3+Gwyyy0CsgiQQkTBmQnV5/vDC+Kn4r/ymOs8RCr4AkEpAwYUB2ev3x8viq+N3ZiodbYaFXQBIJSJgvIDu9/nhtfHXibMXDLbDQKyCJBCRMF5CdXn+8Pr46uSv/aY4z/UKvgCQSkDBbQDb6++03x1cn/yr/Bxxn9oVeAUkkIGGugOz0+uOS8VXhi74NzL3QKyCJBCRMFZCdHpSXja+K/y7/Rxxo6oVeAUkkIGGmgGz0+uPi8VWx1T+Y383EC70CkkhAwkQB2ej1xxXjq+Kddd4G5l3oFZBEAhKmCchOf4991fjqxNmKDUy70CsgiQQkzBKQjV5/XDu+OvGp9BYmXegVkEQCEiYJyEavP64fX514SLQw50KvayORgIQ5ArLR64+q8VXhU+lNzLjQKyCJBCTMEJCNXn/Ujq8KZys2MeFCr4AkEpAwQUA2ev1RP74qHqzzNjHdQq+AJBKQMH5ANnr9ccv46sSn0puYbaFXQBIJSBg+IPu8/rhxfHVinbeJyRZ6BSSRgITBA7LR64+bx1cnzlZsY6qFXgFJJCBh7IBs9PojY3xVfC3/LznWTAu9ApJIQMLQAdnn9UfS+KpwtmIj8yz0CkgiAQkjB2Sf1x9p46vC2YqNTLPQKyCJBCSMG5CNHoKJ46vCp9JbmWShV0ASCUgYNiD7vP7IHV+dbPQP7/c1x0KvgCQSkDBqQPZ5/ZE9vjpxtmIjUyz0CkgiAQmDBmSfv3/OH1+dPJU/AkebYKFXQBIJSBgyIPu8/jhmfFU4W7GV8Rd6BSSRgIQRA7LP64+jxlfFp/KH4XCjL/QKSCIBCQMGZJ/XH8eNr4p767ytDL7QKyCJBCSMF5BtXn8cOr46cbZiM0Mv9ApIIgEJowVkn9cfB4+vTpyt2MzIC70CkkhAwmAB2ef1x+Hjq5ONjsPvbeCFXgFJJCBhrIBs87BrMr4q3pc/JscbdqFXQBIJSBgqINu8/mg0vioeyx+V44260CsgiQQkDBSQfV5/NBtfFT6V3tCYC70CkkhAwjgB2eb1R8vxVeFsxYaGXOgVkEQCEoYJyDavP9qOr06crdjQgAu9ApJIQMIoAdnmAdd6fHVyV/74NDDeQq+AJBKQMEZAtnn90WF8deJT6Q0Nt9ArIIkEJAxxYW0zoe8zvio2+sD8AAZb6BWQRAISXFgN9RpfFT6V3tJYC73u80QCElxYzXQcXxUbfSV4BCMt9LrPEwlIcGG10nV8VbyzztvSQAu97vNEAhJcWI10Hl+dOFuxqWEWet3niQQkuLCa6D++OvGp9KZGWeh1nycSkODCamGE8dWJ33hTgyz0+q0nEpDgwmpgkPFV4VPpbQ2x0Os+TyQgwYV1uHHGV4WzFdsaYaHXfZ5IQIIL62gjja+KB+u8bfVf6HWfJxKQ4MI62FjjqxOfSm+r+0Kv+zyRgAQX1qGGG1+dWOdtrPNCr/s8kYAEF9aRBhxfnThbsbG+C73u80QCElxYBxpzfFV8LX+SNNJ1odd9nkhAggvrMMOOrwpnK7bWcaHXfZ5IQIIL6ygDj68KZyu21m+h132eSECCC+sgQ4+vCp9Kb67XQq/7PJGABBfWIUYfX534VHprnRZ63eeJBCS4sI4w/vjqxNmKzXVZ6HWfJxKQ4MI6wAzjq5On8udMMz0Wet3niQQkuLDSzTK+Kpyt2FyHhV73eSIBCS6sbPOMr4pP5U+cdpov9LrPEwlIcGElm2l8Vdxb522u9UKv+zyRgAQXVqrJxlcnzlZsr+1Cr/s8kYAEF1am6cZXJ85WbK/pQq/7PJGABBdWognHVycfyl8CDTVc6HWfJxKQ4MJKM+n4qnhf/ipoqN1Cr/s8kYAEF1aWacdXxWP566ChZgu97vNEAhJcWEkmHl8VPpXeQ6OFXvd5IgEJLqwUc4+vCmcr9tBmodd9nkhAggsrw+zjqxNnK/bQYqHXfZ5IQIILK8H846uTu/JXREsNFnrd54kEJLiwbrbE+OrEp9K7OHyh132eSECCC+tWq4yvio/lL4umjl7odZ8nEpDgwrrROuOrwqfSuzh4odd9nkhAggvrJkuNrwqfSu/j0IVe93kiAQkurFssNr4q3lnn7eLIhV73eSIBCS6sGyw3vjpxtmIfxy30us8TCUhwYVVbcXx14lPpfRy20Os+TyQgwYVVa83x1YnropODFnr9PhMJSHBhVVp2fFX4VHonxyz0us8TCUhwYVVZeXxVOFuxk0MWet3niQQkuLBqrD2+Kh6s83ZywEKv+zyRgAQXVoXVx1cnPpXeSf5Cr/s8kYAEF9bVNhhfnVjn7SV7odd9nkhAggvrWluMr06crdhL8kKv+zyRgAQX1pV2GV8VX8tfNs2lLvS6zxMJSHBhXWWj8VXhbMVuMhd63eeJBCS4sK6x1fiqcLZiN4kLve7zRAISXFhX2Gx8VfhUej9pC73u80QCElxYF9tvfHXiU+ndZC30us8TCUhwYV1qx/HVibMV+8lZ6HWfJxKQ4MK60J7jq5On8lOgvZSFXvd5IgEJLqyL7Du+Kpyt2FHCQq/7PJGABBfWJXYeXxWfyo+CDm5f6HWfJxKQ4MK6wN7jq+LeOm8/Ny/0us8TCUhwYb1p+/HViXXejm5c6HWfJxKQ4MJ6i/HVd85W7Oi2hV73eSIBCS6sNxhf/eBD+aHQwy0Lve7zRAISXFivMr762fvyc6GHGxZ63eeJBCS4sF5jfPWrx/KToYvqhV73eSIBCS6sVxhfPedT6V3VLvS6zxMJSHBhvcj46ixnK3ZVudDrPk8kIMGF9RLjq5c4W7GrqoVe93kiAQkurBcYX73srvyM6KJmodd9nkhAggvrLOOrV/lUel/XL/S6zxMJSHBhnWN89YaP5QdFH1cv9LrPEwlIcGGdYXz1Jp9K7+zKhV73eSIBCS6sZ4yvLuFT6Z1dt9DrPk8kIMGF9Svjq8u8s87b11ULve7zRAISXFi/ML66mLMVO7tiodd9nkhAggvrJ8ZX1/Cp9M4uX+h1nycSkODC+pHx1XVcPb1dutDrN5VIQIIL6wfGV9fyqfTeLlzodZ8nEpDgwvrO+KqCsxW7u2ih132eSECCC+vE+KrKg3Xe3i5Z6HWfJxKQ4MIqjK9qfSk/QXq5YKHXfZ5IQIIL6xvjqxtY5+3uzYVe93kiAQkurL8YX93E2YrdvbXQ6z5PJCDBhfUn46sbfS0/SPp5faHXfZ5IQIILy/gqgbMV+3t1odd9nkhAggvL+CqDsxUH8MpCr/s8kYCE7S8s46scPpU+gJcXegUkkYCEzS8s46s8PpXe34sLvQKSSEDC3heW8VUmZysO4IWFXgFJJCBh6wvL+CrXU/m50tH5hV4BSSQgYeMLy/gqnbMVR3BuoVdAEglI2PfCMr46wKfyw6WnMwu9ApJIQMK2F5bx1SHurfOO4NlCr4AkEpCw6YVlfHUY67wj+HWhV0ASCUjY88IyvjqQsxVH8MtCr4AkEpCw5YVlfHWoD+XHTFc/LfQKSCIBCRteWMZXR3tfftJ09eNCr4AkEpCw34VlfHW8x/Kzpq9Y6BWQRAIStruwjK9a8Kn0MXxf6BWQRAISNruwjK8acbbiIMpCr4AkEpCw14VlfNWOsxXH8PdCr4AkEpCw1YVlfNXSXfmp09e3hV4BSSQgYaMLy/iqMZ9KH8STgKQSkLDPhWV81dzH8qOnsy8PApJIQMI2F5bxVQc+lT4KOw2JBCRsEhDjqz58Kp31CEjYIyDGV72887e+rEZAwhYBMb7qyNmKLEZAwgYBMb7qy6fSWYuAhPUDYnzV2ybv2diFgITlb27jq/58Kp2VCEhYPCDGV0NwtiILEZCwdkCMrwbxYJ2XZQhIWDogxlfj+FJ+JzA7AQkLB8T4aijWeVmEgIR1A2J8NRhnK7IGAQnLBsT4ajhfy68GpiYgYdGAGF+NyNmKrEBAwpoBMb4ak7MVWYCAhCUDYnw1Kp9KZ34CEhYMiPHVyHwqndkJSFgvIMZXY3O2IpMTkLBcQIyvRvdUflMwJwEJiwXE+GoCzlZkagIS1gqI8dUUPpVfF8xIQMJSATG+msS9dV7mJSBhoYAYX03EOi/TEpCwTkCMr6bibEVmJSBhmYAYX03mQ/nFwWQEJCwSEOOr+bwvvzuYi4CENQJifDWjx/Lbg6kISFgiIMZXc/KpdGYkIGGBgBhfTcvZikxIQML8ATG+mpmzFZmOgITpA2J8Nbe78nuEWQhImDwgxlfT86l0JiMgYe6AGF8t4GP5ZcIcBCRMHRDjqyX4VDpTEZAwcUCMr1bhU+nMREDCvAExvlrHO+u8zENAwrQBMb5airMVmYaAhEkDYny1Gp9KZxYCEuYMiPHVeiZ+G8deBCRMedsaX63Ip9KZg4CECQNifLUoZysyBQEJ8wXE+GpZD9Z5mYCAhOkCYny1si/ltwzjEpAwWUCMrxZnnZfhCUiYKyDGV8tztiKjE5AwVUCMrzbwtfyyYVACEiYKiPHVHpytyNgEJMwTEOOrXThbkaEJSJgmIMZX+/CpdEYmIGGSgBhf7cWn0hmXgIQ5AmJ8tRtnKzIsAQlTBMT4aj9P5XcPoxGQMEFAjK+25GxFBiUgYfyAGF9t6lO5AGAsAhKGD4jx1bburfMyIgEJgwfE+Gpr1nkZkICEsQNifLU5ZysyHgEJQwfE+Gp7H8qlAMMQkPCx/EwGZHzFH3+8L1cDjEJAfvR10FeVxlf85bFcDzAIAfnZf0acNBtf8TefSmcsAvKr30f7536Nr/jO2YoMRUDO+OdIn6M2vuJHzlZkIAJy1v8Oc4Cd8RU/uytXBvQnIC8Z4oW68RXP+FQ6wxCQl/V/oW58xRkD75uzGQF5TecX6sZXnOVT6QxCQN7Q74W68RUv8al0xiAgb+r0Qt34ipe9s87LCATkEh1eqBtf8SpnKzIAAblM4xfqxle8xafS6U9ALtXyhbrxFW8b/wuaLE9ArtDqhbrxFZfwqXR6E5CrtHihbnzFhZytSGcCcq2jX6gbX3GxB+u8dCUg1zv0hbrxFdcY6dxP9iMgNQ57oW58xZWs89KRgFQ65IW68RVXc7Yi/QhItfwX6sZXVPhaLh9oTkBukfpC3fiKOs5WpBcBuU3eC3XjK2o5W5FOBORWSS/Uja+o51Pp9CEgCW5/oW58xW18Kp0eBCTFjS/Uja+4lbMV6UBAstzwQt34itv1/XomexKQPJUv1I2vSOFsRZoTkEw1L9SNr0jyqVxS0IqAJHu88oW68RVp7q3z0paApLvmhbrxFams89KUgBzh0hfqxlckc7YiLQnIMS56oW58RboP5eKCBgTkKG++UDe+4gjvy/UFxxOQA736Qt34imM8lisMDicgh3r5hbrxFUfxqXRaEZCjnX2hbnzFgZytSCMCcrznL9SNrziWsxVpQkBa+OWFuvEVR7sr1xocSUAaiRfqxlc04FPpNCAgzZQX6sZXNPHx2+UGRxKQlr7+w/iKVnwqncMJCCzKp9I5moDAqt5Z5+VYAgLrcrYihxIQWJhPpXMkAYGVfS53OhxAQGBpPpXOcQQE1uZsRQ4jILC4B+u8HERAYHmvfZgG6gkIrM86L4cQENiAsxU5goDADr6WOx4SCQhswdmK5BMQ2IOzFUknILAJn0onm4DANnwqnVwCAvtwtiKpBAQ28lRufMggILATZyuSSEBgK5/KrQ+3ExDYy711XrIICOzGOi9JBAS242xFcggI7OdDuf/hJgICG3pfHgBwCwGBHT2WJwDcQEBgSz6Vzu0EBPbkbEVuJiCwK2crciMBgW3dlccA1BEQ2JdPpXMTAYGNfSwPAqghILAzn0rnBgICW/OpdOoJCOztnXVeagkI7M7ZilQSENieT6VTR0CAz+V5AFcREMCn0qkiIICzFakiIMCfHqzzcjUBAb75Uh4KcCkBAf5mnZcrCQhQOFuR6wgIcPK1PBfgIgICfOdsRa4hIEBwtiJXEBDgBz6VzuUEBPiJT6VzKQEBfuZsRS4kIMAvnsrjAV4nIMCvnK3IRQQEeOZTeUDAawQEeO7eOi9vExDgHOu8vElAgLOcrchbBAQ470N5SsALBAR4wfvymIDzBAR4yWN5TsBZAgK8yKfSeY2AAC9ztiKvEBDgNc5W5EUCArzqrjws4FcCArzOp9J5gYAAb/hYHhfwMwEB3uJT6ZwlIMCbfCqdcwQEeNs767w8JyDAJZytyDMCAlzEp9L5lYAAl/lcnhpQCAhwIZ9K52cCAlzKp9L5iYAAF3uwzssPBAS4wpfy6AABAa5jnZfvBAS4irMVOREQ4Dpfy9OD7QkIcCVnK/I3AQGu5WxFvhEQ4Go+lc5fBASo4FPpCAhQx9mKCAhQ56k8RNiXgAB1nK24PQEBKjlbcXcCAtS6t867NwEB6lnn3ZqAADdwtuLOBAS4xYfyLGFDAgLc5H15mLAfAQFu81ieJmxHQIAb/VYeJ+xGQIBbOVtxUwIC3M7ZilsSECDBXXmksBMBATL4VPqGBARI8bE8VNiHgAA5fCp9OwICJPGp9N0ICJDlnXXevQgIkMfZilsRECCRT6XvRECATJ/Ls4UNCAiQyqfS9yEgQC6fSt+GgADJHqzzbkJAgHRfygOGtQkIkM867xYEBDiAsxV3ICDAEb6WZwwLExDgEM5WXJ+AAMdwtuLyBAQ4iE+lr05AgMP4VPraBAQ4jrMVlyYgwIGeyqOGFQkIcCRnKy5MQIBDOVtxXQICHOveOu+qBAQ4mnXeRQkIcDhnK65JQIDjfShPHJYiIEAD78sjh5UICNDCY3nmsBABAZr4rTx0WIeAAG04W3E5AgK04mzFxQgI0MxdefCwBgEB2vGp9KUICNDQx/LoYQUCArTkU+kLERCgKZ9KX4eAAG29s867CgEBWnO24iIEBGjOp9LXICBAe5/LE4ipCQjQgU+lr0BAgB58Kn0BAgJ08WCdd3oCAnTypTyGmJWAAL1Y552cgADdOFtxbgIC9PO1PImYkoAAHTlbcWYCAvTkbMWJCQjQlU+lz0tAgM58Kn1WAgL05mzFSQkI0N1TeSAxFwEB+nO24pQEBBiAsxVnJCDACO6t885HQIAxWOedjoAAg3C24mwEBBjFh/JcYhICAgzjfXkwMQcBAcbxWJ5MTEFAgIH8Vh5NzEBAgJE4W3EiAgKMxdmK0xAQYDB35fHE6AQEGI1PpU9CQIDh+FT6HAQEGI9PpU9BQIAB+VT6DAQEGNE767zjExBgTM5WHJ6AAIPyqfTRCQgwqs/lOcWgBAQYlk+lj01AgHH5VPrQBAQY2IN13oEJCDC0L+VhxXgEBBibdd5hCQgwOGcrjkpAgNE5W3FQAgIMz9mKYxIQYHzOVhySgAAT8Kn0EQkIMAWfSh+PgABzcLbicAQEmMRTeWwxCgEBZuFsxcEICDANZyuORUCAedxb5x2JgAAzsc47EAEBpuJsxXEICDCXD+XpRXcCAkzmfXl80ZuAALN5LM8vOhMQYDq/lQcYfQkIMB9nKw5BQIAZOVtxAAICTOmuPMToR0CAOflUencCAkzKp9J7ExBgVj6V3pmAANPyqfS+BASY1zvrvD0JCDAzZyv2c3dffgl9CQhQyafS+/jyz/IL6E5AgFqfyxONdv7x9FB++gMQEKCaT6U3dvef8pMfg4AA9XwqvaFxRlcnAgLc4ME6bxtDja5OBAS4yZfyhONAg42uTgQEuI113oONN7o6ERDgRs5WPNCQo6sTAQFu5WzFoww6ujoREOBmzlY8wrijqxMBAW7nbMVsQ4+uTgQESOBT6akGH12dCAiQwqfSs4w/ujoRECCHsxUzTDG6OhEQIMlTeQZSbZLR1YmAAFmcrXiTeUZXJwICpHG2YrWpRlcnAgLkubfOW2Wy0dWJgACZrPNebb7R1YmAAKmcrXiVKUdXJwIC5PpQHo28bdLR1YmAAMnel6cjr5t3dHUiIEC2x/KE5GVTj65OBARI91t5SvKCyUdXJwIC5HuwjPWy+UdXJwICHMHZiuctMbo6ERDgEHflickPFhldnQgIcAyfSv/FOqOrEwEBDuJT6T9YanR1IiDAUXwq/WSx0dWJgACH8an0v6w3ujoREOA477Zf511ydHUiIMCR9j5bcdHR1YmAAIfa91Pp646uTgQEONbn8jzdy9KjqxMBAQ624afSFx9dnQgIcLTNPpW+/ujqRECAwz3ss867xejqRECABr6U5+viNhldnQgI0MIG67z7jK5OBARoYvGzFbcaXZ0ICNDGymcrbja6OhEQoJFVz1bcb3R1IiBAKyuerbjl6OpEQIBmfl/tbMVNR1cnAgI0tNKn0vcdXZ0ICNDSKmcrbj26OhEQoKmn8gSe2uajqxMBAdqa/mxFo6sTAQEam/psRaOrHwgI0Nr9tOu8Rlc/ERCgvSnXeY2ufiUgQAfTna1odHWGgAA9fCgP5jkYXZ0lIEAX78uzeXxGVy8REKCPx/J8HpvR1SsEBOjkt/KMHpjR1asEBOjlYexlLKOrtwgI0M+4ZysaXV1AQICO7srzejBGVxcREKCnAT+VbnR1KQEBuhrsU+lGV1cQEKCvkT6VbnR1FQEBOhvlU+lGV9cSEKC3dwOs8xpdVRAQoL/eZysaXVUREGAAPT+VbnRVS0CAEXwuT/PWjK5uICDAELp8Kt3o6iYCAoyh+afSja5uJSDAIB5arvMaXSUQEGAYX8rT/XBGVykEBBhHk3Veo6ssAgIM5PCzFY2uEgkIMJJjz1Y0ukolIMBQjjtb0egqm4AAYznmbEWjqwMICDCY3/PPVjS6OoSAAMPJ/VS60dVRBAQYT97ZikZXBxIQYEBP5fl/I6OrQwkIMKKEsxWNro4mIMCQbjxb0eiqAQEBxnR/wzqv0VUTAgKMqnKd1+iqFQEBhlVxtqLRVUMCAozrQ8nCpYyumhIQYGDvSxkuYXTVmoAAI3ssdXiL0VUHAgIM7bdSiFcZXXUhIMDYHt5axjK66kVAgNG9drai0VVHAgIM767U4hmjq64EBBjf2U+lG131JiDABJ59Kt3oagACAszg50+lG10NQUCAKcSn0o2uRiEgwBzefVvnNboaiIAAs/i30dVYBASAKgICQBUBAaCKgABQRUAAqCIgAFQREACqCAgAVQQEgCoCAkAVAQGgioAAUEVAAKgiIABUERAAqggIAFUEBIAqAgJAFQEBoIqAAFBFQACoIiAAVBEQAKoICABVBASAKgICQBUBAaCKgABQRUAAqCIgAFQREACqCAgAVQQEgCoCAkAVAQGgioAAUEVAAKgiIABUERAAqggIAFUEBIAqAgJAFQEBoIqAAFBFQACoIiAAVBEQAKoICABVBASAKgICQBUBAaCKgABQRUAAqCIgAFQREACqCAgAVQQEgCoCAkAVAQGgioAAUEVAAKgiIABUERAAqggIAFUEBIAqAgJAFQEBoIqAAFBFQACoIiAAVBEQAKoICABVBASAKgICQBUBAaCKgABQRUAAqCIgAFQREACqCAgAVQQEgCoCAkAVAQGgioAAUEVAAKgiIABUERAAqggIAFUEBIAqAgJAFQEBoIqAAFBFQACoIiAAVBEQAKoICABVBASAKgICQBUBAaCKgABQRUAAqCIgAFQREACqCAgAVQQEgCoCAkAVAQGgioAAUEVAAKgiIABUERAAqggIAFUEBIAqAgJAFQEBoIqAAFBFQACoIiAAVBEQAKoICABVBASAKgICQBUBAaCKgABQRUAAqCIgAFQREACqCAgAVQQEgCoCAkAVAQGgioAAUEVAAKgiIABUERAAqggIAFUEBIAqAgJAFQEBoIqAAFBFQACoIiAAVBEQAKoICABVBASAKgICQBUBAaCKgABQRUAAqCIgAFQREACqCAgAVQQEgCoCAkAVAQGgioAAUEVAAKgiIABUERAAqggIAFUEBIAqAgJAFQEBoIqAAFBFQACoIiAAVBEQACr88cf/B0KDGP6ndHXTAAAAAElFTkSuQmCC;fontColor=#000000;" vertex="1" parent="1">
                    <mxGeometry x="-7" y="161" width="39" height="39" as="geometry"/>
                </mxCell>
                <mxCell id="55" style="elbow=vertical;html=1;labelBackgroundColor=#FFFFFF;strokeColor=#003366;fontColor=#000000;endArrow=blockThin;endFill=1;" edge="1" parent="1" source="54" target="2">
                    <mxGeometry relative="1" as="geometry"/>
                </mxCell>
                <mxCell id="54" value="VSCode" style="shape=image;verticalLabelPosition=bottom;labelBackgroundColor=none;verticalAlign=top;aspect=fixed;imageAspect=0;image=data:image/svg+xml,PHN2ZyB4bWxucz0iaHR0cDovL3d3dy53My5vcmcvMjAwMC9zdmciIHZpZXdCb3g9IjAgMCAzMiAzMiIgaGVpZ2h0PSI4MDBweCIgd2lkdGg9IjgwMHB4Ij48dGl0bGU+ZmlsZV90eXBlX3ZzY29kZTwvdGl0bGU+PHBhdGggc3R5bGU9ImZpbGw6IzAwNjVhOSIgZD0iTTI5LjAxLDUuMDMsMjMuMjQ0LDIuMjU0YTEuNzQyLDEuNzQyLDAsMCwwLTEuOTg5LjMzOEwyLjM4LDE5LjhBMS4xNjYsMS4xNjYsMCwwLDAsMi4zLDIxLjQ0N2MuMDI1LjAyNy4wNS4wNTMuMDc3LjA3N2wxLjU0MSwxLjRhMS4xNjUsMS4xNjUsMCwwLDAsMS40ODkuMDY2TDI4LjE0Miw1Ljc1QTEuMTU4LDEuMTU4LDAsMCwxLDMwLDYuNjcyVjYuNjA1QTEuNzQ4LDEuNzQ4LDAsMCwwLDI5LjAxLDUuMDNaIi8+PHBhdGggc3R5bGU9ImZpbGw6IzAwN2FjYyIgZD0iTTI5LjAxLDI2Ljk3bC01Ljc2NiwyLjc3N2ExLjc0NSwxLjc0NSwwLDAsMS0xLjk4OS0uMzM4TDIuMzgsMTIuMkExLjE2NiwxLjE2NiwwLDAsMSwyLjMsMTAuNTUzYy4wMjUtLjAyNy4wNS0uMDUzLjA3Ny0uMDc3bDEuNTQxLTEuNEExLjE2NSwxLjE2NSwwLDAsMSw1LjQxLDkuMDFMMjguMTQyLDI2LjI1QTEuMTU4LDEuMTU4LDAsMCwwLDMwLDI1LjMyOFYyNS40QTEuNzQ5LDEuNzQ5LDAsMCwxLDI5LjAxLDI2Ljk3WiIvPjxwYXRoIHN0eWxlPSJmaWxsOiMxZjljZjAiIGQ9Ik0yMy4yNDQsMjkuNzQ3YTEuNzQ1LDEuNzQ1LDAsMCwxLTEuOTg5LS4zMzhBMS4wMjUsMS4wMjUsMCwwLDAsMjMsMjguNjg0VjMuMzE2YTEuMDI0LDEuMDI0LDAsMCwwLTEuNzQ5LS43MjQsMS43NDQsMS43NDQsMCwwLDEsMS45ODktLjMzOWw1Ljc2NSwyLjc3MkExLjc0OCwxLjc0OCwwLDAsMSwzMCw2LjZWMjUuNGExLjc0OCwxLjc0OCwwLDAsMS0uOTkxLDEuNTc2WiIvPjwvc3ZnPg==;fontColor=#000000;" vertex="1" parent="1">
                    <mxGeometry x="-9" y="231" width="39" height="39" as="geometry"/>
                </mxCell>
            </root>
        </mxGraphModel>
    </diagram>
</mxfile>